<?xml version="1.0" encoding="UTF-8"?><svg id="b" xmlns="http://www.w3.org/2000/svg" width="457.739" height="351.719" viewBox="0 0 457.739 351.719"><defs><style>.d{fill:none;}.d,.e,.f,.g,.h{stroke-width:0px;}.e{fill:#211715;}.f{fill:#fff;}.g{fill:#3d8dcc;}.h{fill:#c6c6c6;}</style></defs><g id="c"><path class="f" d="M311.417,217.442c-4.687-12.257-9.015-24.314-10.976-30.72h.45c-.598-1.613.175-3.848,1.227-5.066,1.786-2.069,4.037-5.061,5.862-7.103.776.628,16.591,11.874,17.79,12.724h3.092c1.199-.85,17.014-12.096,17.79-12.724,1.826,2.042,4.076,5.035,5.862,7.103,1.051,1.218,1.825,3.454,1.23,5.066-4.784,15.444-20.2,56.35-25.682,66.448l-1.596-.007c-3.17-5.745-9.374-20.879-15.05-35.721Z"/><path class="f" d="M364.584,116.095c.177-5.348-1.047-10.718-3.592-15.762-1.423-2.82-3.295-5.58-6.157-7.801-2.861-2.22-6.816-3.864-11.08-4.04-2.081-.086-4.157.173-6.199.463-4.978.707-10.063,1.612-15.073,1.026-3.336-.39-6.5-1.432-9.875-1.579-5.528-.241-10.889,2.068-13.926,5.31-3.037,3.242-3.981,7.276-3.627,11.145.096,1.046.268,2.145-.344,3.101-.474.741-1.364,1.303-2.173,1.885-3.346,2.405-5.661,5.508-6.529,8.811-1.268-1.012-2.855-1.397-4.231-1.349-3.315.117-4.725,1.91-5.332,2.962-1.812,3.142-1.735,8.932-.519,12.514.861,2.537,2.272,6.418,5.673,9.201,1.508,1.234,3.78,2.014,5.882,1.472,1.541,5.234,4.33,11.551,9.23,17.415,3.521,4.214,7.207,7.429,11.266,9.559.004,2.311.004,4.125.004,4.125.776.628,16.591,11.874,17.79,12.724h3.092c1.199-.85,17.014-12.096,17.79-12.724v-4.052c9.604-5.175,17.178-18.228,18.554-21.961.472-.984,1.245-3.009,1.871-5.077.333.056.521.088.521.088,1.972.333,4.035-.422,5.436-1.569,3.401-2.783,4.812-6.664,5.673-9.201,1.216-3.582,1.293-9.372-.519-12.514-.607-1.053-2.017-2.845-5.332-2.962-1.523-.054-3.303.423-4.624,1.693l-3.648-2.902Z"/><path class="h" d="M346.652,174.552c1.826,2.042,4.076,5.035,5.862,7.103,1.051,1.218,1.825,3.454,1.227,5.066l.45-1.476c-4.18,14.124-20.462,57.485-26.129,67.923l-1.596-.007c-5.787-10.49-21.69-52.278-26.025-66.441h.45c-.598-1.613.175-3.848,1.227-5.066,1.786-2.069,4.037-5.061,5.862-7.103l-1.44-1.344-2.434.942c-4.279,1.998-9.981,5.026-13.007,7.217-4.66,3.374-7.638,6.565-10.457,9.975-14.515,5.769-26.731,11.568-33.729,22.196-4.93,7.49-7.87,17.38-9.86,30.27-1.44,11.07-3.58,29.68-5.38,46.13l-.046.469c44.198.002,125.324.002,178.81.002-.002-1.052-.002-1.716-.002-1.716,7.292-1.122,13.151-7.385,15.039-14.517.865-3.267,1.014-6.675,1.159-10.052.558-13.001.151-19.44,1.487-31.94l-33.217-29.275c-5.905-4.486-13.038-8.194-20.771-11.392-2.863-3.475-5.862-6.717-10.601-10.148-3.026-2.191-8.728-5.219-13.007-7.217l-2.721-.942-1.153,1.344Z"/><path class="g" d="M335.603,236.1c.357-.882.719-1.781,1.085-2.696-1.483-12.572-3.228-26.088-3.228-26.534,0-.84,1.129-6.431,1.601-8.4,0,0,.229-.956.615-2.563-2.612-3.454-5.314-6.945-6.814-8.633h-3.092c-1.611,1.812-4.606,5.703-7.389,9.394.642,1.323,1.021,2.103,1.021,2.103.643,1.326,2.074,6.733,2.1,8.242.013.73-1.827,13.566-3.687,26.68,3.491,8.587,6.666,15.869,8.652,19.467l1.596.007c1.736-3.197,4.467-9.482,7.541-17.069Z"/><path class="e" d="M234.074,289.937c.947-8.649,1.918-17.296,2.925-25.939.839-7.201,1.509-14.47,2.702-21.623,1.253-7.512,2.927-15.177,6.2-22.099,2.835-5.994,6.916-11.043,12.294-14.948,7.005-5.087,15.099-8.494,23.097-11.677,1.204-.479,2.047-1.604,1.676-2.952-.315-1.145-1.741-2.158-2.952-1.676-14.076,5.602-29.059,12.114-36.79,25.97-7.603,13.628-8.768,29.825-10.559,45.014-1.176,9.971-2.3,19.949-3.392,29.93-.141,1.29,1.204,2.4,2.4,2.4,1.415,0,2.258-1.106,2.4-2.4h0Z"/><path class="e" d="M455.42,288.008c-5.573,0-11.145,0-16.718,0-8.044,0-16.089,0-24.133,0-9.775,0-19.549,0-29.324,0-10.91,0-21.821,0-32.731,0-11.281,0-22.562,0-33.843,0-11.07,0-22.14,0-33.21,0-10.092,0-20.184,0-30.276,0-8.522,0-17.045,0-25.567,0-6.208,0-12.415,0-18.623,0-3.262,0-6.523,0-9.785,0-.274,0-.547,0-.821,0-3.089,0-3.094,4.8,0,4.8,2.435,0,4.87,0,7.304,0,5.575,0,11.15,0,16.725,0,7.995,0,15.989,0,23.984,0,9.805,0,19.61,0,29.414,0,10.859,0,21.718,0,32.577,0,11.328,0,22.656,0,33.984,0,11.028,0,22.056,0,33.084,0,10.144,0,20.288,0,30.432,0,8.501,0,17.003,0,25.504,0,6.233,0,12.466,0,18.699,0,1.108,0,2.215,0,3.323,0,3.089,0,3.094-4.8,0-4.8h0Z"/><path class="e" d="M425.721,232.183c-.665,6.288-.972,12.584-1.112,18.904-.072,3.242-.136,6.485-.247,9.726-.119,3.48-.118,7.038-.713,10.477-.967,5.585-4.043,10.74-9.107,13.508-4.736,2.589-10.963,2.37-15.917.537-5.588-2.067-10.567-5.7-15.201-9.363-1.016-.803-2.403-.992-3.394,0-.834.834-1.022,2.586,0,3.394,4.684,3.702,9.499,7.201,14.979,9.634,5.803,2.576,12.7,3.437,18.812,1.325,6.157-2.127,10.802-7.161,13.182-13.135,1.414-3.55,1.757-7.439,1.949-11.223.19-3.749.295-7.502.379-11.255.17-7.531.399-15.032,1.191-22.529.137-1.291-1.201-2.4-2.4-2.4-1.411,0-2.263,1.105-2.4,2.4h0Z"/><path class="e" d="M373.476,193.822c7.113,2.952,14.057,6.505,20.217,11.158,1.035.782,2.684.165,3.284-.861.719-1.23.177-2.5-.861-3.284-6.508-4.916-13.856-8.527-21.363-11.642-1.198-.497-2.639.537-2.952,1.676-.379,1.381.474,2.453,1.676,2.952h0Z"/><path class="e" d="M306.283,172.855c-1.158,1.308-2.248,2.674-3.342,4.035-1.084,1.349-2.353,2.642-3.298,4.091s-1.489,3.338-1.32,5.066c.095.974.46,1.791.856,2.662,1.863,4.094,3.806,8.182,6.279,11.949,1.535,2.339,3.272,4.669,5.633,6.233,1.169.774,2.542.128,3.284-.861,4.301-5.738,8.361-11.699,13.094-17.057,1.089-1.232.823-2.841-.486-3.769-2.986-2.117-5.966-4.243-8.946-6.368-1.928-1.375-3.856-2.751-5.781-4.132-.66-.473-1.319-.947-1.977-1.423-.278-.201-1.526-1.16-.6-.424-1.014-.806-2.404-.99-3.394,0-.836.836-1.02,2.583,0,3.394,2.927,2.326,6.072,4.407,9.114,6.577s6.103,4.354,9.161,6.522l-.486-3.769c-5.005,5.666-9.314,11.984-13.845,18.029l3.284-.861c-.119-.076-.235-.156-.349-.239.194.155.181.142-.04-.038-.243-.206-.476-.423-.703-.647-.434-.43-.839-.889-1.227-1.361-.792-.965-1.611-2.219-2.333-3.392-1.514-2.46-2.841-5.035-4.084-7.641-.433-.909-.854-1.823-1.271-2.74-.138-.304-.299-.607-.418-.919-.027-.069-.082-.137-.098-.208.123.526.078-.207.087-.331.123-1.699,1.745-3.066,2.734-4.293,1.272-1.577,2.524-3.171,3.867-4.688,2.041-2.306-1.342-5.713-3.394-3.394Z"/><path class="e" d="M344.955,176.249c1.343,1.517,2.596,3.111,3.867,4.688.989,1.226,2.611,2.595,2.734,4.293.009.124-.036.857.087.331-.016.068-.073.143-.098.208-.12.312-.28.614-.418.919-.416.917-.837,1.831-1.271,2.74-1.243,2.606-2.57,5.18-4.084,7.641-.722,1.173-1.542,2.427-2.333,3.392-.387.472-.793.931-1.227,1.361-.226.224-.46.441-.703.647-.221.18-.234.193-.04.038-.114.083-.23.162-.349.239l3.284.861c-4.531-6.044-8.839-12.363-13.845-18.029l-.486,3.769c3.058-2.168,6.11-4.345,9.161-6.522s6.187-4.251,9.114-6.577c1.016-.807.843-2.551,0-3.394-1.003-1.003-2.376-.809-3.394,0,.923-.734-.324.224-.6.424-.658.476-1.317.95-1.977,1.423-1.924,1.381-3.852,2.757-5.781,4.132-2.98,2.125-5.96,4.251-8.946,6.368-1.309.928-1.574,2.537-.486,3.769,4.733,5.358,8.793,11.319,13.094,17.057.743.991,2.103,1.643,3.284.861,4.199-2.782,6.823-7.855,9.062-12.216.927-1.806,1.793-3.642,2.633-5.49.232-.512.484-1.019.697-1.539.714-1.744.416-3.73-.308-5.419-.766-1.786-2.202-3.186-3.409-4.684-1.271-1.577-2.524-3.171-3.867-4.688-2.052-2.318-5.436,1.087-3.394,3.394Z"/><path class="e" d="M332.993,202.893c-3.712-.001-7.423-.078-11.134-.079-1.255,0-2.458,1.104-2.4,2.4s1.055,2.399,2.4,2.4c3.712.001,7.423.078,11.134.079,1.255,0,2.458-1.104,2.4-2.4s-1.055-2.4-2.4-2.4h0Z"/><path class="e" d="M332.746,197.833c-.608,2.563-1.158,5.166-1.537,7.773-.22,1.512.032,2.902.218,4.416.959,7.795,1.94,15.587,2.861,23.386.152,1.287.994,2.4,2.4,2.4,1.179,0,2.553-1.104,2.4-2.4-.911-7.717-1.88-15.426-2.83-23.138-.11-.893-.222-1.785-.324-2.679-.024-.214-.045-.429-.069-.643-.006-.052.005-.111-.002-.162-.084-.565-.087.417.002-.087.449-2.541.915-5.079,1.511-7.591.712-3.004-3.915-4.285-4.629-1.276h0Z"/><path class="e" d="M317.329,199.984c.097.214.079.169-.055-.133.049.127.096.255.141.384.072.23.155.456.228.685.205.643.391,1.292.567,1.943.346,1.281.687,2.582.881,3.896-.074-.496.01.169.006.36-.005.195-.038.392-.059.585-.041.37-.089.739-.137,1.109-.031.242-.063.484-.095.726-.01.078-.11.829-.059.449-1.013,7.543-2.114,15.075-3.183,22.611-.182,1.282.314,2.578,1.676,2.952,1.125.309,2.769-.385,2.952-1.676,1.123-7.916,2.279-15.828,3.336-23.753.228-1.713.446-3.15.153-4.865-.441-2.585-1.107-5.307-2.209-7.696-.543-1.177-2.242-1.47-3.284-.861-1.208.707-1.406,2.102-.861,3.284h0Z"/><path class="e" d="M351.876,184.608c-2.613,8.804-5.835,17.445-9.019,26.054-3.805,10.291-7.728,20.549-11.986,30.662.097-.231-.214.506-.253.597-.113.265-.226.531-.339.796-.234.546-.47,1.092-.707,1.637-.433.993-.872,1.984-1.322,2.97-.713,1.563-1.443,3.122-2.26,4.634l2.072-1.189-1.596-.007,2.072,1.189c-4.028-7.335-6.845-14.948-9.927-22.657-4.04-10.103-7.906-20.279-11.563-30.526-1.5-4.203-2.984-8.417-4.293-12.684-.904-2.944-5.539-1.689-4.629,1.276,2.68,8.733,5.915,17.311,9.131,25.857,3.821,10.154,7.769,20.269,12.046,30.24,1.579,3.682,3.16,7.401,5.09,10.917.405.738,1.243,1.185,2.072,1.189l1.596.007c.822.004,1.676-.455,2.072-1.189,1.652-3.057,3.021-6.274,4.386-9.467,2.056-4.812,4.018-9.664,5.935-14.534,4.105-10.427,8.036-20.928,11.745-31.503,1.509-4.304,3.007-8.62,4.305-12.994.881-2.968-3.75-4.235-4.629-1.276h0Z"/><path class="e" d="M377.121,235.987c-6.643,0-13.286.001-19.928.064-1.567.015-3.456-.22-4.965.252-2.501.782-2.895,3.116-2.898,5.386-.002,2.106-.043,4.217-.007,6.323.042,2.488,1.614,4.353,4.156,4.515,4.228.269,8.544.071,12.782.073,3.089,0,3.094-4.799,0-4.8-3.274,0-6.548-.019-9.823-.045-.771-.006-1.542-.013-2.313-.021-.108-.001-.391-.052-.487-.005-.347.172.059-.118.162.078-.006-.012.344.404.278.384.061.269.076.21.045-.178v-.352c.002-1.797.005-3.594.007-5.391,0-.438.001-.877.001-1.315,0-.148.039-.372,0-.514-.103-.381.046.05-.09.156-.335.259-.77.28-.181.297.312.009.628-.01.94-.014,1.453-.02,2.907-.033,4.36-.044,3.166-.023,6.331-.034,9.497-.04,2.821-.006,5.643-.007,8.464-.007,3.089,0,3.094-4.8,0-4.8h0Z"/><path class="e" d="M276.807,240.787c5.298,0,10.595.004,15.893.034,1.45.008,2.901.018,4.351.033.599.006,1.197.013,1.796.02.32.004.64.009.961.014.13.002.26.004.391.006.362.024.337,0-.074-.072-.19-.292-.272-.811-.326-.216-.032.349,0,.733.001,1.083.001.939.002,1.878.003,2.818,0,.804.002,1.608.003,2.413,0,.351-.049.743.001,1.092-.03.443,0,.449.09.019.13-.201.314-.302.554-.304-1.29.128-2.4,1.011-2.4,2.4,0,1.198,1.102,2.529,2.4,2.4,2.551-.254,4.1-1.953,4.156-4.515.046-2.105-.005-4.217-.007-6.323-.003-2.294-.397-4.573-2.898-5.386-1.494-.485-3.409-.237-4.965-.252-6.642-.063-13.286-.064-19.928-.064-3.089,0-3.094,4.8,0,4.8h0Z"/><path class="e" d="M329.586,266.981v-13.807c0-1.255-1.104-2.458-2.4-2.4s-2.4,1.055-2.4,2.4v13.807c0,1.255,1.104,2.458,2.4,2.4s2.4-1.055,2.4-2.4h0Z"/><path class="e" d="M349.502,230.115c4.82-4.745,9.896-9.17,15.218-13.342,3.121-2.446,6.247-4.903,9.51-7.158,2.916-2.016,5.924-3.887,8.911-5.794,1.013-.647,1.646-2.197.861-3.284-2.757-3.818-5.542-7.567-8.56-11.188-2.524-3.028-5.269-5.836-8.366-8.284-3.121-2.467-6.489-4.477-10.003-6.331-2.82-1.488-5.622-2.799-8.629-3.84-2.925-1.013-4.182,3.623-1.276,4.629.816.282,1.637.552,2.448.847.203.074.314.135.031.008.404.182.802.381,1.2.575.906.44,1.807.891,2.702,1.352,3.215,1.656,6.436,3.394,9.344,5.555,3.08,2.288,5.827,4.992,8.322,7.9,1.169,1.361,2.289,2.763,3.41,4.163.28.349.559.698.839,1.047.122.152.241.305.366.455.046.055.457.568.128.137.132.172.254.352.381.528l3.517,4.871.861-3.284c-3.115,1.99-6.254,3.941-9.287,6.056-3.354,2.338-6.571,4.884-9.791,7.401-5.433,4.248-10.616,8.749-15.532,13.588-2.205,2.17,1.19,5.564,3.394,3.394h0Z"/><path class="e" d="M308.524,226.72c-4.916-4.839-10.099-9.34-15.532-13.588-3.22-2.518-6.437-5.063-9.791-7.401-3.033-2.115-6.172-4.066-9.287-6.056l.861,3.284,3.037-4.206c.225-.312.449-.624.675-.935.05-.069.098-.14.15-.208.028-.038.103-.129-.023.034-.173.224.267-.321.31-.373,1.141-1.416,2.266-2.845,3.426-4.246,2.309-2.789,4.787-5.422,7.576-7.738,2.812-2.336,5.931-4.194,9.143-5.923,1.893-1.019,3.826-1.949,5.749-2.908.352-.176-.278.092.23-.111.266-.106.534-.207.801-.31l1.331-.515c1.208-.467,2.044-1.613,1.676-2.952-.317-1.154-1.737-2.147-2.952-1.676-5.998,2.32-12.011,5.337-17.144,9.239-5.644,4.291-10.426,9.736-14.569,15.473l-3.56,4.93c-.78,1.081-.147,2.64.861,3.284,2.986,1.907,5.995,3.779,8.911,5.794,3.263,2.255,6.389,4.712,9.51,7.158,5.323,4.172,10.398,8.597,15.218,13.342,2.203,2.169,5.6-1.223,3.394-3.394h0Z"/><path class="f" d="M327.394,242.698c-30.411.22-60.674.397-71.42.433-1.71.006-3.086,1.393-3.08,3.103.062,17.458.904,77.879,1.546,100.087.049,1.696,1.451,3.029,3.147,3.003,9.711-.15,39.789-.057,69.807.045,30.019-.103,60.096-.195,69.807-.045,1.696.026,3.098-1.308,3.147-3.003.641-22.208,1.484-82.629,1.546-100.087.006-1.71-1.37-3.097-3.08-3.103-10.746-.037-41.009-.213-71.42-.433Z"/><path class="e" d="M255.974,240.731c-1.929.11-3.753.999-4.736,2.729-.669,1.177-.746,2.439-.739,3.753.008,1.664.02,3.327.033,4.991.036,4.521.084,9.042.136,13.562.134,11.625.295,23.249.476,34.873.175,11.255.364,22.51.606,33.763.049,2.271.1,4.542.156,6.813.049,1.998-.178,4.286.279,6.239.646,2.762,3.097,4.279,5.817,4.264.626-.003,1.251-.012,1.877-.016,5.171-.034,10.343-.041,15.515-.051,8.24-.016,16.48-.024,24.719-.03,9.679-.007,19.357-.01,29.036-.009,9.627,0,19.255.004,28.882.012,7.95.007,15.9.015,23.85.033,4.688.01,9.377.014,14.065.054,1.022.009,2.026.052,3.019-.267,1.749-.561,3.147-2.051,3.61-3.828.283-1.084.204-2.302.234-3.417.118-4.431.215-8.862.305-13.293.236-11.583.427-23.166.601-34.75.171-11.35.325-22.701.448-34.051.045-4.141.086-8.283.114-12.425.013-1.978.327-4.29-.652-6.078-1.148-2.096-3.255-2.867-5.519-2.873-4.4-.011-8.799-.011-13.199-.013-7.77-.004-15.54-.007-23.31-.008-9.59-.002-19.18-.003-28.769-.003-9.869,0-19.737,0-29.606.002-8.573.001-17.146.003-25.719.007-5.82.002-11.641.005-17.461.012-1.355.002-2.71.003-4.066.007-3.088.01-3.094,4.81,0,4.8,3.78-.013,7.559-.011,11.339-.014,7.196-.005,14.392-.007,21.589-.009,9.174-.002,18.348-.004,27.522-.004,9.714,0,19.427,0,29.141,0,8.815,0,17.629.003,26.444.005,6.477.002,12.954.005,19.431.01,1.912.002,3.825.003,5.737.007.513,0,1.134-.094,1.638.004,1.16.225.671,2.661.665,3.607-.059,9.189-.174,18.377-.293,27.565-.152,11.757-.326,23.513-.525,35.269-.17,10.079-.349,20.158-.603,30.236-.023.929-.048,1.858-.073,2.787-.017.602.18,1.573-.442,1.872-.411.197-1.234.047-1.703.043-1.813-.015-3.627-.022-5.44-.029-6.344-.024-12.687-.034-19.031-.043-8.733-.012-17.467-.019-26.2-.022-9.644-.004-19.288-.005-28.933-.002-9.076.002-18.152.008-27.228.018-7.028.008-14.057.018-21.085.038-2.284.007-4.568.014-6.852.026-.754.004-1.507.009-2.261.015-.483.004-1.366.153-1.714-.142-.496-.421-.287-1.563-.304-2.168-.026-.943-.05-1.887-.073-2.83-.054-2.153-.103-4.307-.15-6.46-.112-5.141-.211-10.282-.304-15.423-.212-11.748-.394-23.496-.557-35.245-.14-10.14-.27-20.28-.36-30.42-.015-1.724-.029-3.448-.04-5.172-.005-.813-.48-3.453.666-3.519,3.071-.176,3.091-4.977,0-4.8Z"/><path class="e" d="M267.434,338.885c14.668-.091,29.337-.014,44.004.031,17.769.054,35.537-.027,53.307-.054,7.016-.011,14.032-.021,21.048.023,3.089.019,3.093-4.781,0-4.8-14.336-.089-28.674-.013-43.01.032-17.947.057-35.893-.029-53.84-.056-7.169-.01-14.339-.021-21.508.023-3.088.019-3.094,4.819,0,4.8h0Z"/><path class="e" d="M318.298,286.805c-.004,1.879-.006,3.758-.002,5.637.004,2.119-.287,4.447,1.358,6.082,1.596,1.586,3.788,1.325,5.843,1.323,1.85-.002,3.7-.001,5.551.003,1.087.003,2.136-.04,3.113-.586,1.052-.589,1.918-1.679,2.182-2.863.223-1,.146-2.074.149-3.093.003-.99.004-1.979.004-2.969,0-.904,0-1.808-.002-2.713-.002-1.131-.06-2.231-.687-3.22-.709-1.118-1.874-1.905-3.188-2.082-.863-.116-1.738-.074-2.607-.074-2.064,0-4.129,0-6.193,0-1.203,0-2.39.034-3.43.734-1.315.885-2.019,2.249-2.089,3.821-.056,1.256,1.144,2.456,2.4,2.4,1.348-.06,2.34-1.055,2.4-2.4.027-.61-.142.486.037-.078l-.097.251c.142-.222.119-.202-.069.062.158-.1.266-.125-.088.038.496-.229-.488.008.071-.044-.678.063.247.017.415.017.372,0,.744,0,1.116,0,1.537,0,3.073,0,4.61,0,.717,0,1.435,0,2.152,0,.204,0,.686-.078.872.008l-.279-.025c.256.083.229.067-.08-.046.492.202-.342-.204.063.053l-.16-.212c.128.231.126.197-.007-.101.173.545.05-.514.037.078-.007.305.001.611.002.917.001.763.002,1.525.002,2.288,0,1.577-.001,3.154-.01,4.73,0,.072.045.523-.004.567l.052-.27c-.021.118-.052.234-.093.347.105-.101.069-.464.004-.103l.158-.213c-.192.179-.163.166.086-.039-.55.144.381-.063.014.016-.352.075.604.023.007.007-.348-.009-.697-.002-1.045-.003-1.511-.003-3.022-.004-4.533-.003-.74,0-1.48.001-2.219.003-.3,0-.6.001-.9.002-.119,0-.415.048-.519-.006.305.047.37.047.193,0-.171-.054-.116-.029.164.074-.54-.228.413.272-.065-.05.187.264.209.285.067.063l.096.252-.053-.171c-.058-.266-.053-.235.013.094-.072-.065-.004-.655-.005-.763-.004-.847-.006-1.695-.008-2.542-.002-1.732,0-3.464.003-5.196.003-1.255-1.106-2.458-2.4-2.4-1.303.058-2.397,1.054-2.4,2.4Z"/><path class="g" d="M296.47,63.085c3.528-3.25,9.151-6.943,12.951-8.376,12.881-4.86,28.125-4.617,38.582,1.778,10.584,6.472,11.904,9.57,21.099,17.898,2.58,2.337,4.594,5.2,6.579,8.06,3.265,4.705,3.456,12.04,2.752,17.723-.742,5.991-2.482,11.868-2.454,17.92-.785-.425-1.803-.737-3.122-.784-1.523-.054-3.303.423-4.624,1.693l-3.648-2.902c.177-5.348-1.047-10.718-3.592-15.762-1.423-2.82-3.295-5.58-6.157-7.801-2.861-2.22-6.816-3.864-11.08-4.04-2.081-.086-4.157.173-6.199.463-4.978.707-10.063,1.612-15.073,1.026-3.336-.39-6.5-1.432-9.875-1.579-5.528-.241-10.889,2.068-13.926,5.31-3.037,3.242-3.981,7.276-3.627,11.145.096,1.046.268,2.145-.344,3.101-.474.741-1.364,1.303-2.173,1.885-3.348,2.406-5.663,5.511-6.528,8.812-1.268-1.013-2.856-1.398-4.233-1.35-1.039.037-1.891.238-2.589.529-1.544-6.094-2.201-10.654-1.965-16.247.701-16.596,3.661-24.83,12.558-31.298l6.69-7.203Z"/><path class="e" d="M281.332,116.519c-.958-3.915-1.673-7.845-1.749-11.884-.072-3.818.227-7.688.687-11.477.66-5.431,1.968-10.713,5.063-15.16,1.388-1.994,3.601-4.129,5.657-5.637,1.044-.765,1.564-2.083.861-3.284-.602-1.03-2.233-1.632-3.284-.861-4.775,3.501-8.36,7.874-10.506,13.417-2.573,6.644-3.16,14.22-3.28,21.281-.085,5.037.728,10.002,1.921,14.882.734,2.999,5.364,1.729,4.629-1.276h0Z"/><path class="e" d="M298.167,64.782c2.96-2.697,6.34-5.013,9.901-6.841s7.64-2.84,11.574-3.52c7.778-1.346,16.425-.944,23.705,2.327,6.365,2.86,11.829,7.456,16.745,12.324,2.806,2.779,5.818,5.383,8.558,8.221,1.521,1.576,2.828,3.327,4.086,5.115,1.095,1.555,2.056,3.067,2.62,4.896,3.046,9.872-1.453,19.947-1.776,29.854-.101,3.09,4.699,3.086,4.8,0,.17-5.212,1.516-10.262,2.242-15.405.627-4.441.79-8.921-.053-13.348-1.73-9.09-9.408-15.135-15.632-21.289-5.257-5.198-10.74-10.121-17.326-13.614-7.798-4.135-17.055-5.227-25.743-4.21-5.113.599-10.269,1.753-14.971,3.896-4.406,2.008-8.554,4.948-12.124,8.201-2.288,2.085,1.114,5.472,3.394,3.394h0Z"/><path class="e" d="M288.625,118.25c1.327-3.085,3.538-5.108,6.169-7.088,1.602-1.205,2.678-2.649,2.754-4.721.061-1.669-.297-3.294-.054-4.972.916-6.319,6.967-10.21,13-10.637,3.718-.263,7.253.895,10.897,1.406,3.95.554,7.87.266,11.807-.258,3.886-.517,7.935-1.491,11.87-.986,3.144.404,6.315,1.722,8.739,3.779,5.948,5.05,8.574,13.742,8.378,21.323-.08,3.09,4.72,3.088,4.8,0,.203-7.857-2.312-16.101-7.331-22.212-2.427-2.955-5.634-5.105-9.195-6.451-3.864-1.46-7.908-1.538-11.958-1.008-4.353.57-8.694,1.406-13.102,1.341-4.188-.062-8.168-1.466-12.332-1.738-7.194-.471-15.332,2.99-18.681,9.65-.955,1.899-1.485,3.873-1.712,5.98-.101.938-.113,1.884-.049,2.825.048.698.36,1.716-.047,2.32-.511.76-1.707,1.292-2.421,1.856-.81.64-1.577,1.329-2.281,2.084-1.397,1.5-2.584,3.2-3.395,5.086-.512,1.19-.353,2.573.861,3.284,1.012.592,2.769.336,3.284-.861h0Z"/><path class="d" d="M296.47,64.48c8.47-9.438,19.729-12.047,30.825-12.047,11.64,0,21.841,3.305,31.128,10.232,2.076,1.548,6.141,5.324,8.773,9.136,5.687,5.566,10.225,17.727,9.885,29.786-.045,4.71-.4,10.099-1.823,15.571"/><path class="d" d="M279.174,117.157c-1.423-5.76-2.023-10.187-1.796-15.571.701-16.596,4.57-24.083,12.558-31.298"/><path class="d" d="M346.063,150.788c-.587-1.217-1.335-2.355-2.219-3.377"/><path class="e" d="M319.56,153.826c2.553,1.348,5.301,1.92,8.188,1.902,2.981-.019,5.944-.626,8.325-2.482.995-.775.875-2.591,0-3.394-1.055-.969-2.332-.827-3.394,0,.744-.58.234-.183.042-.061-.161.103-.327.199-.497.288-.224.117-.779.249-.107.074-.231.06-.457.176-.685.249-.626.201-1.268.334-1.917.437.358-.057.127-.018-.099.005-.188.019-.376.034-.565.046-.454.029-.908.041-1.362.038-.407-.002-.814-.016-1.22-.044-.186-.013-.373-.028-.559-.046-.084-.008-.766-.128-.186-.018-.604-.114-1.201-.221-1.79-.397-.251-.075-.495-.165-.743-.25-.585-.2.429.213-.1-.037-.307-.145-.61-.296-.91-.454-1.11-.586-2.66-.318-3.284.861-.586,1.109-.324,2.658.861,3.284h0Z"/><path class="e" d="M326.386,134.722c.35,1.335.686,2.691.887,4.057l-.086-.638c.024.187.034.372.015.56l.086-.638c-.013.087-.032.169-.062.252l.242-.573c-.026.059-.053.109-.089.162l.375-.486c-.042.051-.081.09-.133.131l.486-.375c-.103.066-.211.119-.321.17l.573-.242c-.177.074-.352.128-.542.158l.638-.086c-.171.02-.338.019-.508,0l.638.086c-.192-.027-.38-.073-.572-.099-.319-.1-.638-.114-.957-.043-.319.014-.617.109-.892.285-.498.291-.973.862-1.103,1.434-.14.614-.11,1.304.242,1.849.312.484.835,1.022,1.434,1.103.465.063.916.18,1.389.201.74.032,1.423-.197,2.082-.501.822-.378,1.466-1.135,1.684-2.019.186-.751.108-1.386-.019-2.139-.221-1.307-.523-2.602-.859-3.885-.152-.579-.588-1.133-1.103-1.434s-1.273-.429-1.849-.242c-1.25.404-2.018,1.651-1.676,2.952h0Z"/><path class="e" d="M305.156,123.148c-.678,2.202-.236,7.267,3.935,7.698,5.513-.033,5.807-6.157,3.951-9.036-1.519-2.357-5.988-3.338-7.886,1.338Z"/><path class="e" d="M349.475,123.148c.678,2.202.236,7.267-3.935,7.698-5.513-.033-5.807-6.157-3.951-9.036,1.519-2.357,5.987-3.338,7.886,1.338Z"/><path class="e" d="M288.097,117.3c-2.79-2.503-6.794-3.089-10.204-1.502-2.464,1.148-3.949,3.466-4.638,6.028-1.614,6.004-.082,12.974,3.337,18.098,2.316,3.471,5.983,6.616,10.442,6.026,1.285-.17,2.4-.981,2.4-2.4,0-1.165-1.106-2.571-2.4-2.4-3.33.441-5.589-2.25-7.066-4.915-1.287-2.321-2.244-5.001-2.456-7.655-.197-2.471-.188-5.532,1.342-7.627.095-.132.076-.106-.055.078.1-.115.204-.227.313-.333.047-.042.531-.427.305-.268.496-.349,1.019-.538,1.614-.648,1.302-.241,2.671.015,3.671.912,2.294,2.057,5.699-1.326,3.394-3.394h0Z"/><path class="e" d="M369.929,120.694c.953-.855,2.239-1.128,3.491-.95.65.093,1.257.308,1.794.686-.146-.102.829.86.506.444,1.605,2.064,1.597,5.236,1.399,7.707-.207,2.598-1.132,5.212-2.37,7.496-1.472,2.717-3.759,5.522-7.152,5.073-1.287-.17-2.4,1.225-2.4,2.4,0,1.438,1.109,2.229,2.4,2.4,7.305.967,11.8-7.073,13.565-12.979,1.564-5.23,1.546-13.307-3.526-16.686-3.407-2.27-8.14-1.642-11.102,1.015-2.304,2.067,1.099,5.452,3.394,3.394h0Z"/><path class="e" d="M365.533,139.82c-.613,2.97-1.768,5.888-2.773,8.416-.135.34.234-.486-.007.008-.082.169-.156.342-.237.511-.201.423-.413.841-.632,1.255-.503.956-1.042,1.893-1.603,2.815-2.94,4.828-6.523,9.387-10.911,12.981-2.39,1.957-5.08,3.496-8.055,4.187-3.008.698-1.735,5.328,1.276,4.629,6.26-1.454,11.478-6.003,15.569-10.758,3.392-3.942,6.55-8.372,8.707-13.127.156-.343.302-.692.446-1.04.042-.101.249-.6.109-.273-.145.341.012-.015.037-.07.138-.305.265-.617.393-.926.175-.422.344-.847.504-1.275.739-1.971,1.379-3.992,1.805-6.056.622-3.015-4.003-4.304-4.629-1.276h0Z"/><path class="e" d="M284.352,140.951c1.865,8.215,5.721,15.891,11.219,22.273,5.319,6.173,12.173,11.078,20.379,12.299,1.28.19,2.58-.32,2.952-1.676.311-1.132-.386-2.76-1.676-2.952-7.492-1.114-13.404-5.427-18.261-11.064-4.962-5.759-8.307-12.761-9.985-20.155-.684-3.011-5.312-1.737-4.629,1.276h0Z"/><path class="e" d="M402.185,57.672c-3.567,2.222-7.135,4.443-10.702,6.665-1.065.663-1.577,2.173-.861,3.284.688,1.068,2.144,1.571,3.284.861,3.567-2.222,7.135-4.443,10.702-6.665,1.065-.663,1.577-2.173.861-3.284-.688-1.068-2.144-1.571-3.284-.861h0Z"/><path class="e" d="M407.599,74.535c-3.616.644-7.232,1.287-10.848,1.931-1.239.221-2.05,1.798-1.676,2.952.431,1.331,1.625,1.913,2.952,1.676l10.848-1.931c1.239-.221,2.05-1.798,1.676-2.952-.431-1.331-1.625-1.913-2.952-1.676h0Z"/><path class="e" d="M389.928,45.769c-1.825,3.187-3.651,6.374-5.476,9.561-.624,1.09-.292,2.675.861,3.284,1.142.603,2.617.303,3.284-.861,1.825-3.187,3.651-6.374,5.476-9.561.624-1.09.292-2.675-.861-3.284-1.142-.603-2.617-.303-3.284.861h0Z"/><path class="f" d="M433.526,196.326c.054-.871.018-1.717-.096-2.525-.189-1.339-1.207-4.217-1.88-5.052-3.551-4.409-6.625-8.264-10.23-11.939-.77-.784-1.886-1.729-2.743-2.416-1.542-1.237-3.581-1.837-5.547-1.633-1.52.158-3.977,1.742-4.495,3.499,0,0-.295,1.002-.721,2.444-1.463-.476-3.006-.129-4.183.867-1.513,1.279-2.149,3.324-1.785,4.96,0,0,.173.776.346,1.552l-1.341-.922c-1.325-.911-3.445-.521-4.737.752-.861.848-1.383,2.781-1.023,3.935.266.853.914,1.703,1.537,2.469-1.572-1.029-2.867-1.355-4.385-.786-.652.244-1.552.992-2.091,1.487-1.488,1.453-1.797,4.176-.951,6.021.459,1.002,2.588,5.384,3.422,6.563l2.719-1.725c1.479,2.394,2.395,5.117,1.84,7.328-2.714,11.818-1.566,17.446,2.474,20.275,3.297,2.309,8.076,4.046,10.701,4.306,1.06.105,5.918.406,6.834-.139,1.8-1.07,3.597-1.695,4.815-3.531,1.002-1.51,1.504-3.334,1.797-5.104.355-2.153,1.571-7.515,2.543-11.026,1.001-3.769,3.482-10.533,5.239-13.5,1.221-2.062,1.816-4.173,1.94-6.158Z"/><path class="e" d="M410.849,176.897c.469-1.327,2.403-1.926,3.706-1.728,2.321.353,4.134,2.359,5.68,3.97,1.824,1.9,3.551,3.889,5.235,5.914.873,1.05,1.734,2.11,2.593,3.172.651.805,1.401,1.573,1.874,2.5.8,1.567,1.23,3.291,1.212,4.939-.025,2.395-.978,4.321-2.069,6.386-1.978,3.74-3.441,7.859-4.653,11.905-1.186,3.958-2.154,8.035-2.884,12.102-.378,2.104-.792,4.496-2.631,5.838-.858.626-1.912.956-2.763,1.58-.539.395.506-.297.019-.005-.056.034-.5.096.063.009-.411.064-.84.066-1.255.076-3.649.09-6.389-.284-9.782-1.76-1.039-.452-2.054-.971-3.027-1.552-.471-.281-.93-.579-1.379-.894-.316-.222.412.37-.056-.044-.121-.108-.245-.212-.363-.324-.213-.202-.41-.415-.604-.635-.292-.331-.044-.05.009.023-.098-.134-.194-.27-.282-.411-.163-.262-.311-.527-.456-.799-.066-.123-.125-.254-.181-.381.205.465-.065-.194-.079-.238-.563-1.777-.683-2.931-.67-4.82.018-2.558.397-5.091.898-7.595.277-1.386.714-2.78.741-4.203.024-1.255-.239-2.563-.655-3.744-.952-2.697-2.557-5.108-4.516-7.178-2.128-2.248-5.518,1.15-3.394,3.394,1.665,1.76,3.098,3.897,3.639,6.288.226,1,.055,1.834-.16,2.816-.338,1.548-.633,3.105-.86,4.673-.58,4.003-.967,8.413.584,12.259s4.873,5.971,8.57,7.591c3.978,1.743,7.963,2.489,12.294,2.326,2.218-.083,3.921-.925,5.78-2.108,2.539-1.615,4.012-4.068,4.751-6.953.544-2.121.848-4.319,1.335-6.457.548-2.4,1.126-4.798,1.812-7.162,1.241-4.277,2.826-8.47,4.962-12.378,2.599-4.755,2.643-10.178.193-14.987-.683-1.341-1.83-2.49-2.771-3.653-1.089-1.347-2.184-2.689-3.302-4.012-2.031-2.403-4.105-4.849-6.492-6.909-2.599-2.242-5.572-3.872-9.126-3.283-2.729.452-5.256,2.587-6.171,5.175-.432,1.222.49,2.626,1.676,2.952,1.326.364,2.519-.45,2.952-1.676h0Z"/><path class="e" d="M419.787,186.98c-2.246-2.477-4.56-4.895-6.894-7.289-.794-.814-1.564-1.656-2.484-2.329-2.22-1.623-5.44-1.69-7.695-.092-2.547,1.805-3.781,4.834-3.182,7.898.249,1.273,1.77,2.001,2.952,1.676,1.329-.365,1.926-1.676,1.676-2.952-.052-.278-.054-.275-.004.008-.01-.145-.013-.29-.009-.435.023-.285.015-.293-.023-.026.024-.149.055-.297.092-.444.056-.221.12-.449.212-.659-.169.386.257-.397.306-.47-.143.16-.12.131.067-.086.108-.122.222-.238.342-.35.349-.351-.138.006.299-.221.138-.084.28-.16.426-.229-.204.089-.172.086.097-.01.152-.043.307-.078.463-.105-.245.039-.221.048.072.027.646.01-.319-.139.319.026.161.038.32.084.476.14-.183-.08-.14-.055.127.077.156.088.307.184.453.288-.246-.199-.315-.252-.207-.16.013.031.1.088.122.112.377.392.778.763,1.159,1.15,2.528,2.568,5.021,5.179,7.442,7.849.871.961,2.509.885,3.394,0,.956-.956.873-2.431,0-3.394h0Z"/><path class="e" d="M410.646,189.958c-2.073-2-4.314-3.907-6.671-5.561-1.049-.736-2.119-1.621-3.381-1.948-1.534-.399-3.147-.108-4.547.586-2.577,1.278-4.094,4.661-3.27,7.45.452,1.529,1.526,2.751,2.505,3.966.476.591.985,1.135,1.525,1.669,1.544,1.529,3.151,2.996,4.748,4.469.923.851,2.493.982,3.394,0,.85-.926.986-2.485,0-3.394-2.345-2.161-4.808-4.26-6.786-6.773-.168-.214-.023-.03.008.011-.095-.128-.189-.258-.279-.39-.152-.223-.265-.485-.425-.698-.223-.296.209.219-.026-.035-.006-.007-.09-.245-.077-.256.015-.014.007.534.017.13.004-.151.013-.31.006-.46-.015-.339-.103.401-.012.064.025-.094.038-.194.061-.289.033-.134.316-.853.075-.352.091-.188.234-.376.31-.566.088-.223-.075.111-.119.145.019-.015.386-.398.17-.193-.211.201.096-.066.162-.108.085-.054.173-.101.258-.153.364-.223.072-.047-.032-.008.123-.046.248-.089.374-.125.092-.026.195-.038.284-.07.321-.114-.403-.004-.067.004.094.002.189-.011.283-.011.128,0,.505.112.234.007-.323-.125.057.023.123.058.246.129-.155-.073-.158-.075.194.138.413.254.611.389.473.322.947.641,1.416.968.259.18.517.362.773.548.13.094.26.19.389.285.088.064.292.218.091.063.554.427,1.074.895,1.603,1.352,1.023.886,2.061,1.756,3.035,2.696.904.873,2.507.967,3.394,0,.867-.944.965-2.463,0-3.394h0Z"/><path class="e" d="M397.216,189.866c-1.537-.818-3.156-1.224-4.888-.857-1.344.285-2.421,1.065-3.45,1.937-1.867,1.584-2.762,4.161-2.494,6.577.206,1.852,1.067,3.441,1.885,5.084.704,1.415,1.379,2.903,2.282,4.205.713,1.03,2.136,1.601,3.284.861,1.024-.66,1.625-2.18.861-3.284-.723-1.044-1.279-2.219-1.851-3.348-.325-.641-.645-1.286-.959-1.933-.131-.27-.261-.54-.39-.811-.051-.108-.261-.632-.169-.352.113.343-.093-.347-.109-.41-.036-.145-.092-.703-.045-.108-.033-.424-.024-.833-.005-1.257.018-.181.011-.129-.021.155.022-.128.049-.254.08-.38.046-.188.106-.37.165-.555.175-.548-.236.361.063-.123.036-.059.423-.646.218-.382-.201.261.251-.24.306-.291.146-.134.301-.26.452-.388.408-.348-.224.115.195-.143.059-.036.703-.464.383-.268-.21.077-.171.065.116-.036.157-.05.317-.091.479-.122-.406.07.184.017.293.021-.467-.019.171.054.284.08.265.098.308.107.13.027.164.076.324.157.482.245,1.108.589,2.662.316,3.284-.861.588-1.112.323-2.654-.861-3.284h0Z"/><path class="f" d="M197.401,193.395c16.499-18.311,27.05-43.146,27.05-73.658C224.451,43.205,176.193,2.402,113.443,2.402S2.435,43.205,2.435,119.737c0,69.99,55.504,110.118,111.008,110.118,23.782,0,47.56-7.374,66.976-21.3,6.405,3.622,22.076,11.713,29.478,15.058-3.64-9.822-8.398-21.067-12.495-30.218Z"/><path class="e" d="M199.098,195.092c8.521-9.49,15.243-20.393,19.919-32.256,5.123-12.997,7.582-26.974,7.816-40.919.212-12.649-.992-25.427-3.857-37.757-2.484-10.692-6.323-21.116-11.649-30.725-4.89-8.822-11.083-16.967-18.368-23.948-7.104-6.808-15.246-12.549-24.023-16.992-9.031-4.571-18.698-7.85-28.614-9.857C129.79.506,118.983-.296,108.248.096c-10.56.386-21.129,1.941-31.28,4.904-9.569,2.793-18.821,6.838-27.257,12.162-8.337,5.262-15.916,11.754-22.325,19.247-6.714,7.849-12.199,16.689-16.33,26.152-4.579,10.488-7.61,21.561-9.271,32.878-1.874,12.769-2.416,25.892-.932,38.73,1.414,12.238,4.64,24.165,9.881,35.328,4.767,10.154,11.219,19.518,18.948,27.645,7.5,7.887,16.247,14.624,25.727,19.964,9.428,5.311,19.634,9.301,30.154,11.828,11.062,2.658,22.532,3.755,33.896,3.165,15.046-.782,29.863-4.424,43.56-10.693,6.533-2.99,12.766-6.602,18.613-10.778h-2.423c9.584,5.408,19.454,10.515,29.478,15.058.896.406,1.851.461,2.666-.188.699-.557,1.196-1.619.86-2.523-3.867-10.412-8.203-20.654-12.737-30.791-.529-1.183-2.251-1.465-3.284-.861-1.218.713-1.392,2.096-.861,3.284,4.366,9.76,8.53,19.62,12.253,29.644l3.526-2.71c-10.024-4.543-19.894-9.65-29.478-15.058-.698-.394-1.734-.492-2.423,0-11.831,8.451-25.217,14.494-39.356,17.867-12.534,2.99-25.533,3.814-38.348,2.488-10.27-1.062-20.549-3.624-30.214-7.441-9.578-3.783-18.724-8.961-26.836-15.314-8.302-6.502-15.66-14.247-21.585-22.975-6.295-9.273-10.99-19.531-13.969-30.332-3.325-12.055-4.383-24.486-3.966-36.957.391-11.701,2-23.359,5.22-34.627,2.849-9.97,6.964-19.537,12.498-28.318,5.123-8.129,11.396-15.406,18.752-21.686,7.093-6.055,15.325-11.105,23.988-14.922,8.75-3.855,18.458-6.514,28.057-8,10.121-1.567,20.76-1.852,31.082-1.028,9.893.789,19.766,2.755,29.239,6.021,8.896,3.067,17.413,7.367,25.198,12.863,7.521,5.31,14.588,12.104,20.196,19.444,6.104,7.99,10.975,16.934,14.508,26.335,3.945,10.498,6.385,21.553,7.527,32.7,1.361,13.281,1.29,26.85-1.284,39.981-2.454,12.516-7.055,24.532-13.829,35.35-3.058,4.884-6.532,9.478-10.382,13.765-2.059,2.293,1.325,5.698,3.394,3.394Z"/><path class="g" d="M185.666,168.867v1.51c-5.83.01-14.05,0-23.7-.01v-98.33h23.7v96.83Z"/><path class="f" d="M123.566,169.517v-67.48h23.7v68.33c-7.52-.01-15.52-.01-23.7-.01v-.84Z"/><path class="f" d="M108.876,168.867v1.47c-8.01,0-16.01-.01-23.7-.02v-38.28h23.7v36.83Z"/><path class="f" d="M46.78,159.69c0-1.631,0-2.654,0-2.654h23.703v13.275c-8.817-.008-16.896-.017-23.706-.026.002-3.964.003-8.032.003-10.595Z"/><path class="e" d="M72.883,168.87v-11.833c0-1.297-1.1-2.4-2.4-2.4h-23.703c-1.297,0-2.4,1.1-2.4,2.4,0,4.161,0,8.323,0,12.484,0,3.089,4.8,3.094,4.8,0,0-4.161,0-8.323,0-12.484l-2.4,2.4h23.703c-.8-.8-1.6-1.6-2.4-2.4v11.833c0,3.089,4.8,3.094,4.8,0h0Z"/><path class="e" d="M111.277,168.87v-36.833c0-1.297-1.1-2.4-2.4-2.4-7.901,0-15.802,0-23.703,0-1.297,0-2.4,1.1-2.4,2.4,0,10.547,0,21.093,0,31.64,0,1.948,0,3.896,0,5.845,0,3.089,4.8,3.094,4.8,0,0-10.547,0-21.093,0-31.64,0-1.948,0-3.896,0-5.845l-2.4,2.4c7.901,0,15.802,0,23.703,0l-2.4-2.4v36.833c0,3.089,4.8,3.094,4.8,0h0Z"/><path class="e" d="M149.671,168.87v-66.833c0-1.297-1.1-2.4-2.4-2.4-7.901,0-15.802,0-23.703,0-1.297,0-2.4,1.1-2.4,2.4,0,7.818,0,15.635,0,23.453,0,11.496,0,22.993,0,34.489,0,3.181,0,6.361,0,9.542s4.8,3.094,4.8,0c0-7.818,0-15.635,0-23.453,0-11.496,0-22.993,0-34.489,0-3.181,0-6.361,0-9.542l-2.4,2.4c7.901,0,15.802,0,23.703,0l-2.4-2.4v66.833c0,3.089,4.8,3.094,4.8,0h0Z"/><path class="e" d="M188.065,168.87v-83.787c0-4.2.077-8.409,0-12.609-.003-.145,0-.291,0-.437,0-1.297-1.1-2.4-2.4-2.4-7.901,0-15.802,0-23.703,0-1.297,0-2.4,1.1-2.4,2.4,0,3.634,0,7.267,0,10.901,0,7.586,0,15.171,0,22.757,0,8.962,0,17.923,0,26.885v23.7c0,4.261-.077,8.53,0,12.79.003.15,0,.301,0,.451,0,3.089,4.8,3.094,4.8,0,0-3.634,0-7.267,0-10.901,0-7.586,0-15.171,0-22.757v-26.885c0-7.9,0-15.8,0-23.7,0-4.247.197-8.547,0-12.79-.007-.15,0-.301,0-.451l-2.4,2.4c7.901,0,15.802,0,23.703,0l-2.4-2.4v83.787c0,4.2-.077,8.409,0,12.609.003.145,0,.291,0,.437,0,3.089,4.8,3.094,4.8,0h0Z"/><path class="g" d="M122.368,36.916c-9.611,5.178-20.045,11.244-30.998,13.885-.925.223-.926,1.532-.002,1.758l9.811,2.397c.649.158.921.941.498,1.458-15.148,18.511-43.617,35.752-68.246,45.694-1.226.495-.709,2.328.598,2.125,13.965-2.168,27.286-6.249,41.083-13.003,13.986-6.847,25.349-13.413,34.438-24.693.387-.48,1.126-.434,1.431.102,1.451,2.557,3.647,6.036,5.652,9.386.421.703,1.485.533,1.658-.268,2.337-10.81,4.405-27.031,5.395-37.965.065-.715-.687-1.217-1.319-.877Z"/><path class="e" d="M36.015,172.665c9.498.02,18.996.03,28.494.04,13.057.014,26.113.024,39.17.034,13.68.01,27.36.018,41.04.026,11.217.006,22.433.012,33.65.017,5.821.003,11.642.006,17.463.007.199,0,.398,0,.597,0,3.089,0,3.094-4.8,0-4.8-4.944,0-9.887-.003-14.831-.006-10.709-.005-21.418-.01-32.127-.016-13.542-.007-27.085-.016-40.627-.025-13.29-.009-26.581-.02-39.871-.033-10.102-.01-20.204-.02-30.305-.039-.884-.002-1.768-.003-2.652-.005-3.089-.006-3.093,4.794,0,4.8h0Z"/></g></svg>